<svg width="26" height="16" viewBox="0 0 26 16" fill="none" xmlns="http://www.w3.org/2000/svg">
<path fill-rule="evenodd" clip-rule="evenodd" d="M25.6827 0.73429C26.1057 1.15736 26.1057 1.84329 25.6827 2.26636L15.391 12.558C14.968 12.9811 14.282 12.9811 13.859 12.558L9.20833 7.90737L1.84937 15.2663C1.4263 15.6894 0.740368 15.6894 0.317301 15.2663C-0.105767 14.8433 -0.105767 14.1573 0.317301 13.7343L8.4423 5.60929C8.86537 5.18623 9.5513 5.18623 9.97437 5.60929L14.625 10.2599L24.1506 0.73429C24.5737 0.311226 25.2597 0.311226 25.6827 0.73429Z" fill="#0F1B82"/>
<path fill-rule="evenodd" clip-rule="evenodd" d="M17.332 1.50033C17.332 0.902022 17.817 0.416992 18.4154 0.416992H24.9154C25.5137 0.416992 25.9987 0.902022 25.9987 1.50033V8.00033C25.9987 8.59865 25.5137 9.08366 24.9154 9.08366C24.317 9.08366 23.832 8.59865 23.832 8.00033V2.58366H18.4154C17.817 2.58366 17.332 2.09863 17.332 1.50033Z" fill="#0F1B82"/>
</svg>
