<svg width="50" height="50" viewBox="0 0 50 50" fill="none" xmlns="http://www.w3.org/2000/svg">
<path d="M29.1667 44.1667C28.7064 44.1667 28.3333 44.5398 28.3333 45C28.3333 46.841 26.841 48.3333 25 48.3333H5C3.15905 48.3333 1.66667 46.841 1.66667 45V5C1.66667 3.15905 3.15905 1.66667 5 1.66667H5.31833L7.1275 5.285C7.54877 6.13383 8.41572 6.66958 9.36333 6.66667H20.6367C21.5843 6.66958 22.4512 6.13383 22.8725 5.285L24.6817 1.66667H25C26.841 1.66667 28.3333 3.15905 28.3333 5V6.66667C28.3333 7.1269 28.7064 7.5 29.1667 7.5C29.6269 7.5 30 7.1269 30 6.66667V5C29.9972 2.23972 27.7603 0.00275615 25 0H5C2.23972 0.00275615 0.00275615 2.23972 0 5V45C0.00275615 47.7603 2.23972 49.9972 5 50H25C27.7603 49.9972 29.9972 47.7603 30 45C30 44.5398 29.6269 44.1667 29.1667 44.1667ZM21.3817 4.53917C21.2417 4.82241 20.9526 5.00121 20.6367 5H9.36333C9.04739 5.00121 8.75833 4.82241 8.61833 4.53917L7.18167 1.66667H22.8183L21.3817 4.53917Z" fill="#0F1B82"/>
<path d="M21.6667 46.6667C22.1269 46.6667 22.5 46.2936 22.5 45.8333C22.5 45.3731 22.1269 45 21.6667 45H8.33333C7.8731 45 7.5 45.3731 7.5 45.8333C7.5 46.2936 7.8731 46.6667 8.33333 46.6667H21.6667Z" fill="#0F1B82"/>
<path d="M44.9996 9.16699H21.6663C18.906 9.16975 16.669 11.4067 16.6663 14.167V19.5003L7.54376 24.3653C7.00213 24.6555 6.66406 25.2201 6.66406 25.8345C6.66406 26.4489 7.00213 27.0135 7.54376 27.3037L16.6663 32.167V37.5003C16.669 40.2606 18.906 42.4976 21.6663 42.5003H44.9996C47.7599 42.4976 49.9968 40.2606 49.9996 37.5003V14.167C49.9968 11.4067 47.7599 9.16975 44.9996 9.16699ZM48.3329 37.5003C48.3329 39.3413 46.8405 40.8337 44.9996 40.8337H21.6663C19.8253 40.8337 18.3329 39.3413 18.3329 37.5003V31.667C18.3332 31.3591 18.1637 31.0762 17.8921 30.9312L8.33292 25.8337L17.8946 20.7345C18.1647 20.5891 18.3331 20.3071 18.3329 20.0003V14.167C18.3329 12.326 19.8253 10.8337 21.6663 10.8337H44.9996C46.8405 10.8337 48.3329 12.326 48.3329 14.167V37.5003Z" fill="#0F1B82"/>
<path d="M39.9987 15H26.6654C24.8244 15 23.332 16.4924 23.332 18.3333V20C23.335 20.961 23.7553 21.8732 24.4837 22.5C23.7553 23.1268 23.335 24.039 23.332 25V26.6667C23.335 27.6276 23.7553 28.5399 24.4837 29.1667C23.7553 29.7934 23.335 30.7057 23.332 31.6667V33.3333C23.332 35.1743 24.8244 36.6667 26.6654 36.6667H39.9987C41.8396 36.6667 43.332 35.1743 43.332 33.3333V31.6667C43.329 30.7057 42.9088 29.7934 42.1804 29.1667C42.9088 28.5399 43.329 27.6276 43.332 26.6667V25C43.329 24.039 42.9088 23.1268 42.1804 22.5C42.9088 21.8732 43.329 20.961 43.332 20V18.3333C43.332 16.4924 41.8396 15 39.9987 15ZM41.6654 31.6667V33.3333C41.6654 34.2538 40.9192 35 39.9987 35H26.6654C25.7449 35 24.9987 34.2538 24.9987 33.3333V31.6667C24.9987 30.7462 25.7449 30 26.6654 30H39.9987C40.9192 30 41.6654 30.7462 41.6654 31.6667ZM41.6654 25V26.6667C41.6654 27.5871 40.9192 28.3333 39.9987 28.3333H26.6654C25.7449 28.3333 24.9987 27.5871 24.9987 26.6667V25C24.9987 24.0795 25.7449 23.3333 26.6654 23.3333H39.9987C40.9192 23.3333 41.6654 24.0795 41.6654 25ZM26.6654 21.6667C25.7449 21.6667 24.9987 20.9205 24.9987 20V18.3333C24.9987 17.4129 25.7449 16.6667 26.6654 16.6667H39.9987C40.9192 16.6667 41.6654 17.4129 41.6654 18.3333V20C41.6654 20.9205 40.9192 21.6667 39.9987 21.6667H26.6654Z" fill="#0F1B82"/>
<path d="M29.168 18.333H27.5013C27.0411 18.333 26.668 18.7061 26.668 19.1663C26.668 19.6266 27.0411 19.9997 27.5013 19.9997H29.168C29.6282 19.9997 30.0013 19.6266 30.0013 19.1663C30.0013 18.7061 29.6282 18.333 29.168 18.333Z" fill="#0F1B82"/>
<path d="M27.5013 26.6667H29.168C29.6282 26.6667 30.0013 26.2936 30.0013 25.8333C30.0013 25.3731 29.6282 25 29.168 25H27.5013C27.0411 25 26.668 25.3731 26.668 25.8333C26.668 26.2936 27.0411 26.6667 27.5013 26.6667Z" fill="#0F1B82"/>
<path d="M27.5013 33.3337H29.168C29.6282 33.3337 30.0013 32.9606 30.0013 32.5003C30.0013 32.0401 29.6282 31.667 29.168 31.667H27.5013C27.0411 31.667 26.668 32.0401 26.668 32.5003C26.668 32.9606 27.0411 33.3337 27.5013 33.3337Z" fill="#0F1B82"/>
</svg>
