<svg width="36" height="36" viewBox="0 0 36 36" fill="none" xmlns="http://www.w3.org/2000/svg">
<g clip-path="url(#clip0_174_998)">
<path d="M17.988 36.0002C17.8695 36.0002 17.7495 35.9717 17.6415 35.9147L0.4035 26.9147C0.156 26.7857 0 26.5292 0 26.2502V9.37523C0 9.11573 0.135 8.87423 0.3555 8.73773C0.576 8.60123 0.8535 8.58923 1.0845 8.70473L18.3225 17.3297C18.576 17.4572 18.7365 17.7167 18.7365 18.0002V35.2502C18.7365 35.5127 18.6 35.7557 18.375 35.8922C18.258 35.9642 18.123 36.0002 17.988 36.0002ZM1.5 25.7957L17.238 34.0127V18.4637L1.5 10.5887V25.7957Z" fill="#0F1B82"/>
<path d="M18.0117 36.0004C17.8767 36.0004 17.7417 35.9644 17.6232 35.8924C17.3997 35.7559 17.2617 35.5129 17.2617 35.2504V18.0004C17.2617 17.7169 17.4222 17.4574 17.6757 17.3299L34.9137 8.70487C35.1432 8.58787 35.4222 8.59987 35.6427 8.73787C35.8647 8.87437 35.9997 9.11587 35.9997 9.37537V26.2504C35.9997 26.5294 35.8437 26.7859 35.5962 26.9149L18.3582 35.9149C18.2502 35.9719 18.1302 36.0004 18.0117 36.0004ZM18.7617 18.4639V34.0129L34.4997 25.7959V10.5889L18.7617 18.4639Z" fill="#0F1B82"/>
<path d="M0.749606 10.1252C0.473606 10.1252 0.209606 9.97373 0.0776058 9.71123C-0.108394 9.34073 0.0431058 8.89073 0.413606 8.70473L17.6756 0.0797266C17.8871 -0.0252734 18.1361 -0.0252734 18.3461 0.0797266L35.5841 8.70473C35.9546 8.89073 36.1046 9.34073 35.9201 9.71123C35.7341 10.0817 35.2856 10.2302 34.9136 10.0472L18.0116 1.58873L1.08561 10.0457C0.977606 10.0997 0.863606 10.1252 0.749606 10.1252Z" fill="#0F1B82"/>
<path d="M27.0001 22.5002C26.5861 22.5002 26.2501 22.1642 26.2501 21.7502V13.9637L9.42608 5.54574C9.05558 5.36124 8.90558 4.90974 9.09158 4.53924C9.27758 4.16874 9.72758 4.02024 10.0981 4.20324L27.3361 12.8282C27.5896 12.9572 27.7501 13.2167 27.7501 13.5002V21.7502C27.7501 22.1642 27.4141 22.5002 27.0001 22.5002Z" fill="#0F1B82"/>
</g>
<defs>
<clipPath id="clip0_174_998">
<rect width="36" height="36" fill="white"/>
</clipPath>
</defs>
</svg>
