<svg width="38" height="38" viewBox="0 0 38 38" fill="none" xmlns="http://www.w3.org/2000/svg">
<path d="M1.57446 15.6771C0.797741 15.8031 0.196895 16.4258 0.0987959 17.2066C-0.0316271 18.3891 -0.0329401 19.5824 0.094982 20.7653C0.18414 21.5581 0.788675 22.1955 1.57571 22.3264L3.59096 22.6563C3.97785 24.3043 4.63097 25.8781 5.52448 27.3157L4.33829 28.9725C3.86562 29.6134 3.87706 30.4905 4.36618 31.1189C4.74369 31.5807 5.1454 32.0224 5.5695 32.4419C5.95839 32.8315 6.38836 33.2229 6.90455 33.6566C7.52797 34.1361 8.39304 34.1461 9.02746 33.6813L10.6924 32.4869C12.1287 33.3803 13.7009 34.0336 15.3474 34.421L15.678 36.4395C15.8037 37.2164 16.4266 37.8176 17.2075 37.9158C17.5685 37.9563 17.9352 37.9848 18.3044 38H18.3583C18.6883 37.9997 19.0058 37.8728 19.2449 37.6453C19.4936 37.4077 19.6339 37.0785 19.6331 36.7346V31.6591C19.6294 30.9809 19.094 30.4249 18.4165 30.3956C12.3547 30.0791 7.60193 25.0718 7.60193 19.0017C7.60193 12.9317 12.3547 7.92434 18.4165 7.60785C19.0951 7.57809 19.6307 7.02051 19.6331 6.3412V1.26826C19.6341 0.923949 19.4935 0.594453 19.2442 0.356928C18.9954 0.112775 18.6557 -0.0160849 18.3075 0.00160914C17.9389 0.016177 17.5735 0.0427493 17.1985 0.0807633C16.418 0.181363 15.7982 0.786211 15.6785 1.564L15.3486 3.58049C13.7021 3.96826 12.1299 4.62175 10.6936 5.51533L9.02865 4.32339C8.38835 3.85515 7.5149 3.8691 6.88992 4.35759C6.43075 4.73348 5.99128 5.13275 5.57325 5.55397C5.1424 5.97512 4.73682 6.42135 4.35855 6.89027C3.87531 7.5145 3.86293 8.38301 4.32817 9.02081L5.52198 10.6877C4.62921 12.1253 3.97697 13.6989 3.59096 15.3465L1.57446 15.6771ZM4.73669 16.0305C5.10489 14.2417 5.81128 12.5397 6.81783 11.0158C6.96207 10.7966 6.95626 10.5113 6.80327 10.2982L5.35867 8.2811C5.22512 8.10485 5.22125 7.86238 5.34917 7.68194C5.6963 7.25172 6.06874 6.8425 6.46445 6.45643C6.84884 6.06816 7.25256 5.69946 7.67409 5.35189C7.85553 5.21359 8.107 5.21359 8.28844 5.35189L10.3024 6.79718C10.5158 6.94979 10.8011 6.95505 11.02 6.81049C12.5426 5.80356 14.2436 5.09692 16.0315 4.72873C16.2886 4.67577 16.4863 4.46969 16.5287 4.21066L16.9271 1.7717C16.9557 1.55293 17.1237 1.37849 17.3413 1.34167C17.6763 1.30684 18.0158 1.28214 18.3666 1.2682L18.3527 6.34176C11.61 6.68613 6.32078 12.2555 6.32453 19.007C6.32822 25.7585 11.6236 31.322 18.3666 31.659L18.3578 36.7345C18.0176 36.7205 17.6808 36.6939 17.3483 36.6566C17.1297 36.6246 16.9584 36.4523 16.9277 36.2335L16.5287 33.7932C16.4863 33.5342 16.2886 33.3282 16.0315 33.2752C14.2436 32.9067 12.5426 32.1999 11.02 31.1928C10.801 31.0484 10.5157 31.0539 10.3024 31.2067L8.28656 32.6533C8.11462 32.7869 7.87579 32.7934 7.69691 32.6691C7.23142 32.2771 6.82796 31.9091 6.46445 31.5462C6.07612 31.1625 5.70767 30.7592 5.36055 30.3378C5.22393 30.1553 5.22393 29.9047 5.36055 29.7222L6.80389 27.7069C6.9567 27.4937 6.96226 27.2084 6.81783 26.9894C5.81121 25.4658 5.10483 23.7639 4.73669 21.9753C4.6838 21.7185 4.47803 21.5208 4.21925 21.4781L1.78092 21.0785C1.55396 21.041 1.37971 20.8569 1.3547 20.6282C1.23609 19.5389 1.23734 18.4398 1.35851 17.3508C1.39002 17.132 1.56208 16.9602 1.78092 16.929L4.21856 16.5299C4.47835 16.4874 4.68461 16.2885 4.73669 16.0305Z" fill="#0F1B82"/>
<path d="M36.0992 17.1008C35.2969 17.1041 34.5832 17.611 34.3158 18.3674H19.6327V16.4674H29.766C30.8153 16.4674 31.6659 15.6168 31.6659 14.5675V11.2843C32.5384 10.9759 33.0617 10.0838 32.9052 9.17174C32.7487 8.25972 31.9579 7.59304 31.0326 7.59304C30.1072 7.59304 29.3164 8.25972 29.1599 9.17174C29.0034 10.0838 29.5268 10.9759 30.3992 11.2843V14.5675C30.3992 14.9172 30.1157 15.2008 29.7658 15.2008H19.6327V13.3008H26.5993C26.9491 13.3008 27.2326 13.0173 27.2326 12.6675C27.2326 12.3177 26.9491 12.0341 26.5993 12.0341H19.6327V10.7675H23.4327C24.482 10.7675 25.3327 9.91683 25.3327 8.86744V4.95106C26.2052 4.64264 26.7285 3.7505 26.572 2.83847C26.4155 1.92645 25.6247 1.25977 24.6994 1.25977C23.774 1.25977 22.9832 1.92645 22.8267 2.83847C22.6702 3.7505 23.1935 4.64264 24.066 4.95106V8.86757C24.066 9.21732 23.7825 9.50093 23.4326 9.50093H19.4655C19.2476 9.09596 18.8127 8.85613 18.354 8.88789C13.017 9.22595 8.86133 13.6531 8.86133 19.0009C8.86133 24.3486 13.017 28.7758 18.354 29.1138H18.4281C18.8608 29.1175 19.26 28.8815 19.4655 28.5008H23.4326C23.7824 28.5008 24.066 28.7843 24.066 29.1342V33.0507C23.1935 33.3591 22.6702 34.2512 22.8267 35.1633C22.9832 36.0753 23.774 36.742 24.6994 36.742C25.6247 36.742 26.4155 36.0753 26.572 35.1633C26.7285 34.2512 26.2052 33.3591 25.3327 33.0507V29.1342C25.3327 28.0848 24.4821 27.2341 23.4327 27.2341H19.6327V25.9675H26.5993C26.9491 25.9675 27.2326 25.684 27.2326 25.3342C27.2326 24.9844 26.9491 24.7008 26.5993 24.7008H19.6327V22.8009H29.766C30.1157 22.8009 30.3993 23.0844 30.3993 23.4342V26.7173C29.5269 27.0258 29.0036 27.9179 29.1601 28.8299C29.3166 29.7419 30.1073 30.4086 31.0327 30.4086C31.958 30.4086 32.7488 29.7419 32.9053 28.8299C33.0618 27.9179 32.5385 27.0258 31.666 26.7173V23.4342C31.666 22.3849 30.8154 21.5342 29.7661 21.5342H19.6327V19.6341H34.3158C34.6394 20.5427 35.5933 21.0637 36.5327 20.845C37.4721 20.6263 38.0978 19.7375 37.9869 18.7794C37.8759 17.8214 37.0637 17.0991 36.0992 17.1008ZM31.0326 8.86757C31.3824 8.86757 31.6659 9.15111 31.6659 9.50093C31.6659 9.85074 31.3824 10.1343 31.0326 10.1343C30.6829 10.1343 30.3993 9.85074 30.3993 9.50093C30.3993 9.15111 30.6828 8.86757 31.0326 8.86757ZM24.6994 2.5343C25.0491 2.5343 25.3327 2.81784 25.3327 3.16766C25.3327 3.51747 25.0492 3.80095 24.6994 3.80095C24.3495 3.80095 24.0661 3.51741 24.0661 3.16766C24.0661 2.8179 24.3495 2.5343 24.6994 2.5343ZM24.6994 35.4673C24.3496 35.4673 24.0661 35.1838 24.0661 34.8339C24.0661 34.4841 24.3496 34.2006 24.6994 34.2006C25.0491 34.2006 25.3327 34.4841 25.3327 34.8339C25.3327 35.1838 25.0491 35.4673 24.6994 35.4673ZM31.0326 29.134C30.6829 29.134 30.3993 28.8505 30.3993 28.5007C30.3993 28.1509 30.6829 27.8674 31.0326 27.8674C31.3824 27.8674 31.6659 28.1509 31.6659 28.5007C31.6659 28.8504 31.3824 29.134 31.0326 29.134ZM10.1328 19.0008C10.1381 14.3518 13.7293 10.4944 18.3661 10.157V27.8446C13.7293 27.5072 10.1381 23.6498 10.1328 19.0008ZM36.0992 19.6341C35.7495 19.6341 35.4659 19.3506 35.4659 19.0007C35.4659 18.6509 35.7494 18.3674 36.0992 18.3674C36.4491 18.3674 36.7326 18.651 36.7326 19.0007C36.7326 19.3505 36.449 19.6341 36.0992 19.6341Z" fill="#0F1B82"/>
</svg>
